PathFileType	4	(X/Y/Z)	 New Session 109.trc
DataRate	CameraRate	NumFrames	NumMarkers	Units	OrigDataRate	OrigDataStartFrame	OrigNumFrames
100	100	27	14	m	100	286	1141
Frame#	Time	C7			T8			IJ			PX			AA			AC			AI			TS			SC			GH			LE			ME			US			RS			
		X1	Y1	Z1	X2	Y2	Z2	X3	Y3	Z3	X4	Y4	Z4	X5	Y5	Z5	X6	Y6	Z6	X7	Y7	Z7	X8	Y8	Z8	X9	Y9	Z9	X10	Y10	Z10	X11	Y11	Z11	X12	Y12	Z12	X13	Y13	Z13	X14	Y14	Z14	
286	2.8600	0.003651	0.111695	0.142271	0.010987	-0.100192	0.224051	-0.008945	-0.003460	-0.017590	-0.006306	-0.148892	-0.075968	0.186357	0.046924	0.149187	0.146101	0.075750	0.065776	0.078107	0.042132	0.189696	0.086424	-0.080076	0.219988	0.015837	0.006264	-0.013932	0.200934	0.058830	0.110667	0.326644	-0.172945	0.191679	0.247787	-0.239662	0.207056	0.231249	-0.144780	-0.037096	0.212038	-0.067337	-0.014921	
287	2.8700	0.003550	0.111677	0.142178	0.010939	-0.100206	0.223970	-0.009092	-0.003452	-0.017634	-0.006346	-0.148887	-0.076033	0.186294	0.046891	0.149123	0.146003	0.075764	0.065751	0.078029	0.042105	0.189650	0.086389	-0.080104	0.219918	0.015754	0.006283	-0.013997	0.200852	0.058792	0.110609	0.326429	-0.173351	0.191121	0.247472	-0.239939	0.206578	0.230649	-0.145063	-0.037583	0.211593	-0.067601	-0.015373	
288	2.8800	0.003450	0.111655	0.142099	0.010907	-0.100223	0.223887	-0.009220	-0.003434	-0.017684	-0.006389	-0.148874	-0.076095	0.186231	0.046871	0.149051	0.145902	0.075778	0.065711	0.077969	0.042083	0.189632	0.086377	-0.080144	0.219834	0.015656	0.006307	-0.014063	0.200776	0.058759	0.110541	0.326216	-0.173724	0.190520	0.247220	-0.240234	0.206029	0.230108	-0.145362	-0.038136	0.211277	-0.067850	-0.015896	
289	2.8900	0.003354	0.111630	0.142039	0.010887	-0.100244	0.223803	-0.009321	-0.003412	-0.017737	-0.006444	-0.148856	-0.076154	0.186180	0.046844	0.148978	0.145805	0.075792	0.065644	0.077924	0.042070	0.189645	0.086386	-0.080197	0.219736	0.015545	0.006328	-0.014141	0.200718	0.058716	0.110458	0.326023	-0.174092	0.189849	0.247040	-0.240563	0.205393	0.229655	-0.145676	-0.038757	0.211024	-0.068119	-0.016495	
290	2.9000	0.003266	0.111602	0.141995	0.010872	-0.100267	0.223719	-0.009391	-0.003390	-0.017786	-0.006513	-0.148835	-0.076214	0.186143	0.046806	0.148901	0.145721	0.075822	0.065546	0.077891	0.042045	0.189651	0.086411	-0.080258	0.219624	0.015422	0.006342	-0.014228	0.200679	0.058654	0.110354	0.325907	-0.174509	0.189065	0.246944	-0.240938	0.204660	0.229269	-0.146010	-0.039459	0.210764	-0.068435	-0.017176	
291	2.9100	0.003187	0.111572	0.141956	0.010856	-0.100291	0.223635	-0.009444	-0.003379	-0.017828	-0.006600	-0.148815	-0.076276	0.186119	0.046773	0.148812	0.145653	0.075859	0.065422	0.077870	0.041994	0.189617	0.086446	-0.080320	0.219499	0.015291	0.006344	-0.014305	0.200660	0.058577	0.110232	0.325933	-0.175021	0.188138	0.246945	-0.241362	0.203816	0.228929	-0.146377	-0.040271	0.210458	-0.068808	-0.017946	
292	2.9200	0.003117	0.111544	0.141909	0.010834	-0.100311	0.223552	-0.009497	-0.003385	-0.017868	-0.006706	-0.148794	-0.076338	0.186108	0.046760	0.148711	0.145595	0.075850	0.065290	0.077874	0.041943	0.189573	0.086485	-0.080378	0.219361	0.015168	0.006335	-0.014366	0.200661	0.058496	0.110097	0.326100	-0.175635	0.187051	0.247043	-0.241840	0.202843	0.228639	-0.146789	-0.041229	0.210092	-0.069253	-0.018830	
293	2.9300	0.003051	0.111521	0.141844	0.010807	-0.100328	0.223474	-0.009565	-0.003405	-0.017914	-0.006828	-0.148772	-0.076397	0.186118	0.046761	0.148610	0.145543	0.075783	0.065157	0.077880	0.041866	0.189476	0.086531	-0.080427	0.219215	0.015069	0.006322	-0.014424	0.200685	0.058415	0.109955	0.326357	-0.176329	0.185779	0.247235	-0.242385	0.201701	0.228399	-0.147258	-0.042370	0.209675	-0.069782	-0.019864	
294	2.9400	0.002986	0.111507	0.141764	0.010776	-0.100341	0.223401	-0.009654	-0.003435	-0.017969	-0.006959	-0.148749	-0.076443	0.186148	0.046749	0.148517	0.145492	0.075686	0.065024	0.077857	0.041721	0.189265	0.086590	-0.080464	0.219069	0.014965	0.006310	-0.014486	0.200739	0.058332	0.109810	0.326676	-0.177091	0.184283	0.247520	-0.243022	0.200339	0.228174	-0.147792	-0.043723	0.209262	-0.070393	-0.021085	
295	2.9500	0.002917	0.111500	0.141682	0.010742	-0.100353	0.223337	-0.009772	-0.003474	-0.018022	-0.007091	-0.148724	-0.076461	0.186190	0.046688	0.148428	0.145436	0.075586	0.064894	0.077799	0.041495	0.188940	0.086668	-0.080489	0.218935	0.014817	0.006291	-0.014534	0.200825	0.058246	0.109670	0.327051	-0.177927	0.182528	0.247912	-0.243775	0.198709	0.227927	-0.148393	-0.045312	0.208917	-0.071064	-0.022525	
296	2.9600	0.002850	0.111490	0.141623	0.010709	-0.100367	0.223284	-0.009926	-0.003522	-0.018053	-0.007215	-0.148701	-0.076434	0.186231	0.046552	0.148326	0.145368	0.075494	0.064782	0.077725	0.041232	0.188583	0.086765	-0.080505	0.218821	0.014648	0.006259	-0.014555	0.200929	0.058150	0.109545	0.327492	-0.178848	0.180486	0.248418	-0.244662	0.196764	0.227664	-0.149067	-0.047179	0.208620	-0.071800	-0.024225	
297	2.9700	0.002789	0.111474	0.141607	0.010675	-0.100385	0.223244	-0.010121	-0.003568	-0.018038	-0.007324	-0.148682	-0.076345	0.186280	0.046350	0.148210	0.145290	0.075407	0.064697	0.077674	0.041014	0.188312	0.086874	-0.080513	0.218729	0.014488	0.006216	-0.014547	0.201023	0.058035	0.109426	0.328009	-0.179869	0.178124	0.249024	-0.245684	0.194477	0.227425	-0.149832	-0.049371	0.208276	-0.072643	-0.026230	
298	2.9800	0.002716	0.111452	0.141633	0.010637	-0.100408	0.223216	-0.010360	-0.003590	-0.017965	-0.007415	-0.148670	-0.076191	0.186339	0.046100	0.148086	0.145213	0.075320	0.064641	0.077661	0.040868	0.188157	0.086986	-0.080505	0.218658	0.014341	0.006169	-0.014507	0.201082	0.057891	0.109287	0.328587	-0.181001	0.175408	0.249705	-0.246827	0.191828	0.227249	-0.150698	-0.051929	0.207813	-0.073633	-0.028580	
299	2.9900	0.002605	0.111431	0.141681	0.010589	-0.100435	0.223203	-0.010636	-0.003563	-0.017841	-0.007492	-0.148668	-0.075982	0.186400	0.045815	0.147943	0.145141	0.075234	0.064597	0.077669	0.040785	0.188080	0.087093	-0.080472	0.218606	0.014188	0.006121	-0.014427	0.201119	0.057718	0.109113	0.329196	-0.182244	0.172310	0.250439	-0.248069	0.188808	0.227156	-0.151641	-0.054876	0.207177	-0.074783	-0.031300	
300	3.0000	0.002455	0.111415	0.141729	0.010530	-0.100462	0.223204	-0.010939	-0.003484	-0.017695	-0.007567	-0.148672	-0.075748	0.186472	0.045510	0.147766	0.145062	0.075156	0.064534	0.077691	0.040761	0.188047	0.087190	-0.080411	0.218563	0.013975	0.006068	-0.014300	0.201182	0.057523	0.108889	0.329832	-0.183579	0.168816	0.251221	-0.249394	0.185405	0.227156	-0.152612	-0.058223	0.206343	-0.076072	-0.034404	
301	3.0100	0.002290	0.111401	0.141777	0.010465	-0.100489	0.223223	-0.011254	-0.003373	-0.017557	-0.007650	-0.148677	-0.075525	0.186595	0.045194	0.147531	0.144964	0.075084	0.064427	0.077733	0.040784	0.188038	0.087278	-0.080328	0.218508	0.013655	0.006003	-0.014119	0.201310	0.057321	0.108592	0.330496	-0.184981	0.164920	0.252058	-0.250797	0.181599	0.227251	-0.153571	-0.061982	0.205346	-0.077450	-0.037899	
302	3.0200	0.002136	0.111387	0.141847	0.010399	-0.100513	0.223261	-0.011547	-0.003271	-0.017455	-0.007752	-0.148673	-0.075340	0.186811	0.044866	0.147218	0.144846	0.075012	0.064282	0.077796	0.040812	0.188006	0.087373	-0.080244	0.218412	0.013250	0.005936	-0.013894	0.201499	0.057111	0.108205	0.331176	-0.186429	0.160619	0.252941	-0.252275	0.177373	0.227434	-0.154512	-0.066167	0.204288	-0.078874	-0.041780	
303	3.0300	0.001993	0.111369	0.141958	0.010338	-0.100532	0.223323	-0.011779	-0.003219	-0.017398	-0.007878	-0.148655	-0.075212	0.187115	0.044513	0.146812	0.144716	0.074941	0.064121	0.077871	0.040817	0.187922	0.087500	-0.080185	0.218257	0.012883	0.005901	-0.013679	0.201718	0.056892	0.107731	0.331853	-0.187905	0.155914	0.253853	-0.253811	0.172730	0.227670	-0.155463	-0.070786	0.203249	-0.080327	-0.046053	
304	3.0400	0.001854	0.111347	0.142104	0.010286	-0.100547	0.223410	-0.011955	-0.003206	-0.017371	-0.008025	-0.148618	-0.075147	0.187460	0.044123	0.146319	0.144573	0.074873	0.063965	0.077977	0.040836	0.187861	0.087678	-0.080153	0.218059	0.012661	0.005909	-0.013521	0.201939	0.056670	0.107189	0.332512	-0.189386	0.150816	0.254773	-0.255379	0.167685	0.227891	-0.156452	-0.075826	0.202264	-0.081806	-0.050739	
305	3.0500	0.001712	0.111324	0.142275	0.010240	-0.100556	0.223516	-0.012105	-0.003202	-0.017353	-0.008184	-0.148571	-0.075136	0.187806	0.043706	0.145770	0.144410	0.074811	0.063817	0.078099	0.040873	0.187830	0.087886	-0.080120	0.217887	0.012531	0.005944	-0.013401	0.202143	0.056459	0.106596	0.333144	-0.190830	0.145348	0.255687	-0.256946	0.162247	0.228045	-0.157488	-0.081263	0.201351	-0.083299	-0.055860	
306	3.0600	0.001561	0.111308	0.142459	0.010194	-0.100560	0.223635	-0.012255	-0.003199	-0.017327	-0.008344	-0.148527	-0.075155	0.188146	0.043280	0.145176	0.144224	0.074772	0.063657	0.078197	0.040892	0.187762	0.088088	-0.080044	0.217814	0.012380	0.005981	-0.013259	0.202327	0.056267	0.105955	0.333743	-0.192188	0.139543	0.256588	-0.258475	0.156410	0.228118	-0.158552	-0.087069	0.200518	-0.084774	-0.061419	
307	3.0700	0.001411	0.111308	0.142642	0.010147	-0.100557	0.223759	-0.012414	-0.003211	-0.017284	-0.008491	-0.148508	-0.075168	0.188481	0.042859	0.144512	0.144028	0.074779	0.063454	0.078282	0.040913	0.187673	0.088269	-0.079921	0.217838	0.012132	0.006007	-0.013063	0.202502	0.056096	0.105255	0.334303	-0.193430	0.133424	0.257478	-0.259932	0.150176	0.228126	-0.159615	-0.093219	0.199757	-0.086196	-0.067394	
308	3.0800	0.001276	0.111326	0.142806	0.010111	-0.100546	0.223894	-0.012579	-0.003242	-0.017217	-0.008619	-0.148527	-0.075142	0.188811	0.042445	0.143744	0.143838	0.074828	0.063173	0.078391	0.040970	0.187588	0.088436	-0.079773	0.217890	0.011758	0.006010	-0.012809	0.202676	0.055933	0.104485	0.334819	-0.194552	0.127009	0.258361	-0.261292	0.143578	0.228099	-0.160645	-0.099692	0.199054	-0.087536	-0.073756	
309	3.0900	0.001178	0.111357	0.142942	0.010100	-0.100522	0.224048	-0.012757	-0.003294	-0.017111	-0.008728	-0.148590	-0.075055	0.189151	0.042060	0.142886	0.143662	0.074874	0.062808	0.078548	0.041071	0.187495	0.088610	-0.079615	0.217908	0.011306	0.005982	-0.012531	0.202849	0.055773	0.103646	0.335282	-0.195560	0.120299	0.259246	-0.262543	0.136661	0.228063	-0.161612	-0.106484	0.198397	-0.088786	-0.080470	
310	3.1000	0.001129	0.111394	0.143051	0.010117	-0.100482	0.224225	-0.012976	-0.003377	-0.016944	-0.008828	-0.148689	-0.074894	0.189526	0.041714	0.141978	0.143490	0.074852	0.062381	0.078755	0.041219	0.187393	0.088821	-0.079448	0.217879	0.010894	0.005922	-0.012305	0.203032	0.055623	0.102735	0.335675	-0.196462	0.113287	0.260146	-0.263675	0.129448	0.228034	-0.162496	-0.113607	0.197772	-0.089953	-0.087509	
311	3.1100	0.001129	0.111429	0.143141	0.010149	-0.100424	0.224423	-0.013265	-0.003505	-0.016699	-0.008930	-0.148810	-0.074658	0.189962	0.041403	0.141034	0.143311	0.074732	0.061924	0.079002	0.041417	0.187314	0.089093	-0.079258	0.217825	0.010559	0.005833	-0.012158	0.203248	0.055502	0.101739	0.336015	-0.197240	0.105982	0.261072	-0.264681	0.121940	0.228012	-0.163289	-0.121087	0.197157	-0.091040	-0.094860	
312	3.1200	0.001160	0.111455	0.143222	0.010186	-0.100350	0.224635	-0.013630	-0.003673	-0.016388	-0.009051	-0.148932	-0.074354	0.190462	0.041135	0.140048	0.143109	0.074539	0.061463	0.079282	0.041660	0.187291	0.089440	-0.079035	0.217783	0.010240	0.005723	-0.012047	0.203495	0.055424	0.100666	0.336352	-0.197856	0.098429	0.262023	-0.265539	0.114132	0.227977	-0.164002	-0.128952	0.196541	-0.092034	-0.102554	
